<?xml version="1.0" standalone="no"?>
<!DOCTYPE svg PUBLIC "-//W3C//DTD SVG 20010904//EN"
 "http://www.w3.org/TR/2001/REC-SVG-20010904/DTD/svg10.dtd">
<svg version="1.0" xmlns="http://www.w3.org/2000/svg"
 width="620.000000pt" height="620.000000pt" viewBox="0 0 620.000000 620.000000"
 preserveAspectRatio="xMidYMid meet">
<metadata>
Created by potrace 1.11, written by Peter Selinger 2001-2013
</metadata>
<g transform="translate(0.000000,620.000000) scale(0.100000,-0.100000)"
fill="#000000" stroke="none">
<path d="M2990 5084 c-111 -21 -92 -12 -655 -304 -71 -37 -236 -122 -365 -188
-391 -200 -444 -229 -480 -260 -87 -72 -112 -216 -55 -320 15 -29 26 -54 24
-56 -4 -4 -106 -57 -443 -230 -205 -104 -251 -159 -251 -296 0 -64 4 -83 28
-124 15 -27 24 -53 20 -57 -7 -6 -188 -100 -488 -253 -98 -50 -154 -97 -179
-151 -50 -106 -31 -227 50 -308 20 -19 101 -68 187 -112 84 -43 206 -106 272
-140 66 -34 210 -109 320 -165 190 -97 291 -149 675 -347 91 -47 244 -126 340
-176 96 -49 243 -124 325 -167 634 -327 622 -322 775 -322 163 -1 196 12 705
275 99 51 279 144 400 206 121 63 283 146 360 186 77 40 230 119 340 175 110
56 254 131 320 165 66 34 224 115 350 180 377 194 408 211 442 246 77 78 97
200 48 302 -28 61 -80 101 -226 176 -330 169 -434 224 -442 231 -5 4 3 27 18
50 35 56 44 148 21 218 -28 82 -80 126 -267 221 -305 157 -414 213 -418 217
-2 2 8 27 24 55 33 61 40 140 19 211 -23 76 -81 128 -224 201 -119 61 -349
179 -675 347 -467 240 -563 288 -590 295 -16 5 -32 9 -35 10 -80 22 -185 25
-270 9z m466 -494 c154 -79 324 -166 379 -195 55 -29 186 -96 290 -150 105
-54 194 -101 198 -105 5 -4 -38 -31 -95 -60 -57 -29 -166 -85 -243 -125 -162
-84 -515 -265 -694 -357 -116 -59 -127 -62 -191 -62 -74 1 -77 2 -535 239
-283 146 -522 269 -603 311 -46 23 -82 46 -80 51 1 4 11 13 23 19 11 6 76 40
145 76 69 36 206 107 305 158 99 51 281 145 405 208 275 141 279 143 356 138
56 -3 87 -16 340 -146z m-1546 -878 c36 -18 119 -61 185 -95 447 -234 768
-396 810 -409 128 -39 271 -39 385 -1 43 15 239 110 405 198 44 23 188 98 320
165 132 68 264 136 294 151 l53 29 112 -59 c61 -32 198 -103 303 -157 106 -55
193 -101 193 -104 0 -3 -69 -40 -153 -83 -166 -84 -206 -105 -1202 -619 -440
-227 -444 -229 -514 -229 -74 -1 -34 -21 -956 456 -389 201 -644 332 -782 403
-73 37 -133 69 -133 72 0 3 96 54 213 115 116 60 253 130 302 156 50 26 92 47
95 46 3 -1 34 -17 70 -35z m-512 -773 c108 -56 265 -136 347 -179 83 -43 224
-116 315 -162 91 -47 240 -124 332 -172 524 -271 538 -276 689 -281 144 -5
209 14 414 120 251 130 452 233 620 320 94 48 238 122 320 165 83 43 244 126
360 185 l210 108 100 -52 c54 -29 193 -100 307 -158 114 -59 207 -107 205
-109 -3 -2 -203 -106 -472 -244 -110 -56 -258 -133 -330 -170 -126 -65 -274
-142 -670 -345 -104 -54 -244 -126 -310 -160 -66 -34 -241 -125 -390 -201
l-270 -139 -75 1 c-82 0 -72 -4 -392 162 -73 38 -218 113 -323 167 -104 54
-257 132 -340 175 -207 107 -447 231 -660 340 -449 231 -799 412 -802 414 -1
1 89 49 200 106 111 57 247 127 302 157 55 29 104 53 108 53 5 0 97 -46 205
-101z"/>
<path d="M2839 4312 c-136 -70 -254 -133 -263 -141 -19 -16 -21 -54 -3 -69 6
-5 77 -44 157 -85 80 -41 192 -99 250 -129 58 -30 114 -54 123 -52 23 3 497
244 523 265 19 16 17 53 -3 71 -25 22 -508 268 -524 268 -8 -1 -125 -58 -260
-128z"/>
</g>
</svg>
